<svg width="1920" height="1574" viewBox="0 0 1920 1574" fill="none" xmlns="http://www.w3.org/2000/svg">
<path opacity="0.1" d="M-10 18.3L-10 17.3L-11 17.3L-11 18.3L-10 18.3ZM203 18.3L204 18.3L204 17.3L203 17.3L203 18.3ZM203 164.4L203 165.4L204 165.4L204 164.4L203 164.4ZM152 164.4L151 164.4L151 165.4L152 165.4L152 164.4ZM152 76.8L153 76.8L153 75.8L152 75.8L152 76.8ZM116.6 76.8L116.6 75.8L115.6 75.8L115.6 76.8L116.6 76.8ZM116.6 148.2L116.6 149.2L117.6 149.2L117.6 148.2L116.6 148.2ZM69.2 148.2L68.2 148.2L68.2 149.2L69.2 149.2L69.2 148.2ZM69.2 76.8L70.2 76.8L70.2 75.8L69.2 75.8L69.2 76.8ZM-10 76.8L-11 76.8L-11 77.8L-10 77.8L-10 76.8ZM-10 19.3L203 19.3L203 17.3L-10 17.3L-10 19.3ZM202 18.3L202 164.4L204 164.4L204 18.3L202 18.3ZM203 163.4L152 163.4L152 165.4L203 165.4L203 163.4ZM153 164.4L153 76.8L151 76.8L151 164.4L153 164.4ZM152 75.8L116.6 75.8L116.6 77.8L152 77.8L152 75.8ZM115.6 76.8L115.6 148.2L117.6 148.2L117.6 76.8L115.6 76.8ZM116.6 147.2L69.2 147.2L69.2 149.2L116.6 149.2L116.6 147.2ZM70.2 148.2L70.2 76.8L68.2 76.8L68.2 148.2L70.2 148.2ZM69.2 75.8L-10 75.8L-10 77.8L69.2 77.8L69.2 75.8ZM-9 76.8L-9 18.3L-11 18.3L-11 76.8L-9 76.8ZM41 339.143L41 340.143L42 340.143L42 339.143L41 339.143ZM-10 339.143L-11 339.143L-11 340.143L-10 340.143L-10 339.143ZM-10 187.343L-10 186.343L-11 186.343L-11 187.343L-10 187.343ZM203 187.343L204 187.343L204 186.343L203 186.343L203 187.343ZM203 336.443L203 337.443L204 337.443L204 336.443L203 336.443ZM152 336.443L151 336.443L151 337.443L152 337.443L152 336.443ZM152 245.843L153 245.843L153 244.843L152 244.843L152 245.843ZM122 245.843L122 244.843L121 244.843L121 245.843L122 245.843ZM122 323.243L122 324.243L123 324.243L123 323.243L122 323.243ZM74.6 323.243L73.6 323.243L73.6 324.243L74.6 324.243L74.6 323.243ZM74.6 245.843L75.6 245.843L75.6 244.843L74.6 244.843L74.6 245.843ZM41 245.843L41 244.843L40 244.843L40 245.843L41 245.843ZM41 338.143L-10 338.143L-10 340.143L41 340.143L41 338.143ZM-9.00001 339.143L-9.00001 187.343L-11 187.343L-11 339.143L-9.00001 339.143ZM-10 188.343L203 188.343L203 186.343L-10 186.343L-10 188.343ZM202 187.343L202 336.443L204 336.443L204 187.343L202 187.343ZM203 335.443L152 335.443L152 337.443L203 337.443L203 335.443ZM153 336.443L153 245.843L151 245.843L151 336.443L153 336.443ZM152 244.843L122 244.843L122 246.843L152 246.843L152 244.843ZM121 245.843L121 323.243L123 323.243L123 245.843L121 245.843ZM122 322.243L74.6 322.243L74.6 324.243L122 324.243L122 322.243ZM75.6 323.243L75.6 245.843L73.6 245.843L73.6 323.243L75.6 323.243ZM74.6 244.843L41 244.843L41 246.843L74.6 246.843L74.6 244.843ZM40 245.843L40 339.143L42 339.143L42 245.843L40 245.843ZM-10 366.347L-10 365.347L-11 365.347L-11 366.347L-10 366.347ZM203 366.347L204 366.347L204 365.347L203 365.347L203 366.347ZM203 512.447L203 513.447L204 513.447L204 512.447L203 512.447ZM152 512.447L151 512.447L151 513.447L152 513.447L152 512.447ZM152 424.847L153 424.847L153 423.847L152 423.847L152 424.847ZM116.6 424.847L116.6 423.847L115.6 423.847L115.6 424.847L116.6 424.847ZM116.6 496.247L116.6 497.247L117.6 497.247L117.6 496.247L116.6 496.247ZM69.2 496.247L68.2 496.247L68.2 497.247L69.2 497.247L69.2 496.247ZM69.2 424.847L70.2 424.847L70.2 423.847L69.2 423.847L69.2 424.847ZM-10 424.847L-11 424.847L-11 425.847L-10 425.847L-10 424.847ZM-10 367.347L203 367.347L203 365.347L-10 365.347L-10 367.347ZM202 366.347L202 512.447L204 512.447L204 366.347L202 366.347ZM203 511.447L152 511.447L152 513.447L203 513.447L203 511.447ZM153 512.447L153 424.847L151 424.847L151 512.447L153 512.447ZM152 423.847L116.6 423.847L116.6 425.847L152 425.847L152 423.847ZM115.6 424.847L115.6 496.247L117.6 496.247L117.6 424.847L115.6 424.847ZM116.6 495.247L69.2 495.247L69.2 497.247L116.6 497.247L116.6 495.247ZM70.2 496.247L70.2 424.847L68.2 424.847L68.2 496.247L70.2 496.247ZM69.2 423.847L-10 423.847L-10 425.847L69.2 425.847L69.2 423.847ZM-9.00002 424.847L-9.00002 366.347L-11 366.347L-11 424.847L-9.00002 424.847ZM56.3 657.49L55.77 658.338L55.7777 658.343L55.7855 658.347L56.3 657.49ZM73.4 664.09L73.6137 663.113L73.4 664.09ZM203 666.19L204 666.19L204 665.19L203 665.19L203 666.19ZM203 724.69L203 725.69L204 725.69L204 724.69L203 724.69ZM51.8 718.99L51.5154 719.948L51.5194 719.95L51.8 718.99ZM18.5 701.29L19.1481 700.528L18.5 701.29ZM-3.70004 670.99L-2.78558 670.585L-2.78812 670.579L-3.70004 670.99ZM-3.40002 584.59L-4.30038 584.155L-4.30471 584.164L-4.30886 584.173L-3.40002 584.59ZM19.7 554.89L20.3306 555.666L19.7 554.89ZM53 537.79L52.7292 536.827L52.7253 536.828L53 537.79ZM203 532.39L204 532.39L204 531.39L203 531.39L203 532.39ZM203 590.89L203 591.89L204 591.89L204 590.89L203 590.89ZM73.1 592.99L72.8925 592.012L72.8863 592.013L73.1 592.99ZM56 599.59L55.4855 598.732L55.4777 598.737L55.47 598.742L56 599.59ZM44.3 610.99L43.4624 610.444L43.4487 610.464L43.4362 610.486L44.3 610.99ZM39.1 628.39C39.1 635.339 40.6342 641.331 43.752 646.32L45.448 645.26C42.5657 640.648 41.1 635.04 41.1 628.39L39.1 628.39ZM43.752 646.32C46.8325 651.249 50.8412 655.257 55.77 658.338L56.83 656.642C52.1587 653.722 48.3675 649.931 45.448 645.26L43.752 646.32ZM55.7855 658.347C60.8893 661.41 66.6931 663.646 73.1863 665.067L73.6137 663.113C67.3068 661.733 61.7106 659.57 56.8145 656.632L55.7855 658.347ZM73.1863 665.067C79.6611 666.483 86.433 667.19 93.5 667.19L93.5 665.19C86.567 665.19 79.9389 664.497 73.6137 663.113L73.1863 665.067ZM93.5 667.19L203 667.19L203 665.19L93.5 665.19L93.5 667.19ZM202 666.19L202 724.69L204 724.69L204 666.19L202 666.19ZM203 723.69L93.5 723.69L93.5 725.69L203 725.69L203 723.69ZM93.5 723.69C78.7862 723.69 64.9814 721.801 52.0805 718.03L51.5194 719.95C64.6186 723.779 78.6138 725.69 93.5 725.69L93.5 723.69ZM52.0846 718.031C39.4071 714.268 28.4335 708.431 19.1481 700.528L17.8519 702.051C27.3664 710.149 38.5928 716.112 51.5154 719.948L52.0846 718.031ZM19.1481 700.528C9.87161 692.633 2.55856 682.659 -2.78561 670.585L-4.61447 671.395C0.84137 683.721 8.32834 693.946 17.8519 702.051L19.1481 700.528ZM-2.78812 670.579C-8.11761 658.736 -10.8 644.682 -10.8 628.39L-12.8 628.39C-12.8 644.897 -10.0825 659.244 -4.61194 671.4L-2.78812 670.579ZM-10.8 628.39C-10.8 611.497 -8.01736 597.046 -2.49121 585.007L-4.30886 584.173C-9.98269 596.533 -12.8 611.283 -12.8 628.39L-10.8 628.39ZM-2.49969 585.025C3.24152 573.147 10.8531 563.366 20.3306 555.666L19.0694 554.114C9.3469 562.013 1.55842 572.033 -4.30038 584.155L-2.49969 585.025ZM20.3306 555.666C29.8195 547.956 40.7968 542.316 53.2747 538.751L52.7253 536.828C40.0032 540.463 28.7804 546.224 19.0694 554.114L20.3306 555.666ZM53.2707 538.752C65.9768 535.179 79.3853 533.39 93.5 533.39L93.5 531.39C79.2147 531.39 65.6231 533.201 52.7292 536.827L53.2707 538.752ZM93.5 533.39L203 533.39L203 531.39L93.5 531.39L93.5 533.39ZM202 532.39L202 590.89L204 590.89L204 532.39L202 532.39ZM203 589.89L93.5 589.89L93.5 591.89L203 591.89L203 589.89ZM93.5 589.89C86.4329 589.89 79.5632 590.597 72.8925 592.012L73.3075 593.968C79.8368 592.583 86.5671 591.89 93.5 591.89L93.5 589.89ZM72.8863 592.013C66.3931 593.433 60.5893 595.67 55.4855 598.732L56.5145 600.447C61.4106 597.51 67.0068 595.346 73.3137 593.967L72.8863 592.013ZM55.47 598.742C50.5506 601.816 46.5442 605.718 43.4624 610.444L45.1376 611.536C48.0557 607.062 51.8493 603.363 56.53 600.438L55.47 598.742ZM43.4362 610.486C40.529 615.47 39.1 621.452 39.1 628.39L41.1 628.39C41.1 621.727 42.4709 616.11 45.1638 611.494L43.4362 610.486Z" fill="white"/>
<path opacity="0.1" d="M1918 1555.7L1918 1556.7L1919 1556.7L1919 1555.7L1918 1555.7ZM1705 1555.7L1704 1555.7L1704 1556.7L1705 1556.7L1705 1555.7ZM1705 1409.6L1705 1408.6L1704 1408.6L1704 1409.6L1705 1409.6ZM1756 1409.6L1757 1409.6L1757 1408.6L1756 1408.6L1756 1409.6ZM1756 1497.2L1755 1497.2L1755 1498.2L1756 1498.2L1756 1497.2ZM1791.4 1497.2L1791.4 1498.2L1792.4 1498.2L1792.4 1497.2L1791.4 1497.2ZM1791.4 1425.8L1791.4 1424.8L1790.4 1424.8L1790.4 1425.8L1791.4 1425.8ZM1838.8 1425.8L1839.8 1425.8L1839.8 1424.8L1838.8 1424.8L1838.8 1425.8ZM1838.8 1497.2L1837.8 1497.2L1837.8 1498.2L1838.8 1498.2L1838.8 1497.2ZM1918 1497.2L1919 1497.2L1919 1496.2L1918 1496.2L1918 1497.2ZM1918 1554.7L1705 1554.7L1705 1556.7L1918 1556.7L1918 1554.7ZM1706 1555.7L1706 1409.6L1704 1409.6L1704 1555.7L1706 1555.7ZM1705 1410.6L1756 1410.6L1756 1408.6L1705 1408.6L1705 1410.6ZM1755 1409.6L1755 1497.2L1757 1497.2L1757 1409.6L1755 1409.6ZM1756 1498.2L1791.4 1498.2L1791.4 1496.2L1756 1496.2L1756 1498.2ZM1792.4 1497.2L1792.4 1425.8L1790.4 1425.8L1790.4 1497.2L1792.4 1497.2ZM1791.4 1426.8L1838.8 1426.8L1838.8 1424.8L1791.4 1424.8L1791.4 1426.8ZM1837.8 1425.8L1837.8 1497.2L1839.8 1497.2L1839.8 1425.8L1837.8 1425.8ZM1838.8 1498.2L1918 1498.2L1918 1496.2L1838.8 1496.2L1838.8 1498.2ZM1917 1497.2L1917 1555.7L1919 1555.7L1919 1497.2L1917 1497.2ZM1867 1234.86L1867 1233.86L1866 1233.86L1866 1234.86L1867 1234.86ZM1918 1234.86L1919 1234.86L1919 1233.86L1918 1233.86L1918 1234.86ZM1918 1386.66L1918 1387.66L1919 1387.66L1919 1386.66L1918 1386.66ZM1705 1386.66L1704 1386.66L1704 1387.66L1705 1387.66L1705 1386.66ZM1705 1237.56L1705 1236.56L1704 1236.56L1704 1237.56L1705 1237.56ZM1756 1237.56L1757 1237.56L1757 1236.56L1756 1236.56L1756 1237.56ZM1756 1328.16L1755 1328.16L1755 1329.16L1756 1329.16L1756 1328.16ZM1786 1328.16L1786 1329.16L1787 1329.16L1787 1328.16L1786 1328.16ZM1786 1250.76L1786 1249.76L1785 1249.76L1785 1250.76L1786 1250.76ZM1833.4 1250.76L1834.4 1250.76L1834.4 1249.76L1833.4 1249.76L1833.4 1250.76ZM1833.4 1328.16L1832.4 1328.16L1832.4 1329.16L1833.4 1329.16L1833.4 1328.16ZM1867 1328.16L1867 1329.16L1868 1329.16L1868 1328.16L1867 1328.16ZM1867 1235.86L1918 1235.86L1918 1233.86L1867 1233.86L1867 1235.86ZM1917 1234.86L1917 1386.66L1919 1386.66L1919 1234.86L1917 1234.86ZM1918 1385.66L1705 1385.66L1705 1387.66L1918 1387.66L1918 1385.66ZM1706 1386.66L1706 1237.56L1704 1237.56L1704 1386.66L1706 1386.66ZM1705 1238.56L1756 1238.56L1756 1236.56L1705 1236.56L1705 1238.56ZM1755 1237.56L1755 1328.16L1757 1328.16L1757 1237.56L1755 1237.56ZM1756 1329.16L1786 1329.16L1786 1327.16L1756 1327.16L1756 1329.16ZM1787 1328.16L1787 1250.76L1785 1250.76L1785 1328.16L1787 1328.16ZM1786 1251.76L1833.4 1251.76L1833.4 1249.76L1786 1249.76L1786 1251.76ZM1832.4 1250.76L1832.4 1328.16L1834.4 1328.16L1834.4 1250.76L1832.4 1250.76ZM1833.4 1329.16L1867 1329.16L1867 1327.16L1833.4 1327.16L1833.4 1329.16ZM1868 1328.16L1868 1234.86L1866 1234.86L1866 1328.16L1868 1328.16ZM1918 1207.65L1918 1208.65L1919 1208.65L1919 1207.65L1918 1207.65ZM1705 1207.65L1704 1207.65L1704 1208.65L1705 1208.65L1705 1207.65ZM1705 1061.55L1705 1060.55L1704 1060.55L1704 1061.55L1705 1061.55ZM1756 1061.55L1757 1061.55L1757 1060.55L1756 1060.55L1756 1061.55ZM1756 1149.15L1755 1149.15L1755 1150.15L1756 1150.15L1756 1149.15ZM1791.4 1149.15L1791.4 1150.15L1792.4 1150.15L1792.4 1149.15L1791.4 1149.15ZM1791.4 1077.75L1791.4 1076.75L1790.4 1076.75L1790.4 1077.75L1791.4 1077.75ZM1838.8 1077.75L1839.8 1077.75L1839.8 1076.75L1838.8 1076.75L1838.8 1077.75ZM1838.8 1149.15L1837.8 1149.15L1837.8 1150.15L1838.8 1150.15L1838.8 1149.15ZM1918 1149.15L1919 1149.15L1919 1148.15L1918 1148.15L1918 1149.15ZM1918 1206.65L1705 1206.65L1705 1208.65L1918 1208.65L1918 1206.65ZM1706 1207.65L1706 1061.55L1704 1061.55L1704 1207.65L1706 1207.65ZM1705 1062.55L1756 1062.55L1756 1060.55L1705 1060.55L1705 1062.55ZM1755 1061.55L1755 1149.15L1757 1149.15L1757 1061.55L1755 1061.55ZM1756 1150.15L1791.4 1150.15L1791.4 1148.15L1756 1148.15L1756 1150.15ZM1792.4 1149.15L1792.4 1077.75L1790.4 1077.75L1790.4 1149.15L1792.4 1149.15ZM1791.4 1078.75L1838.8 1078.75L1838.8 1076.75L1791.4 1076.75L1791.4 1078.75ZM1837.8 1077.75L1837.8 1149.15L1839.8 1149.15L1839.8 1077.75L1837.8 1077.75ZM1838.8 1150.15L1918 1150.15L1918 1148.15L1838.8 1148.15L1838.8 1150.15ZM1917 1149.15L1917 1207.65L1919 1207.65L1919 1149.15L1917 1149.15ZM1851.7 916.51L1852.23 915.662L1852.22 915.657L1852.21 915.653L1851.7 916.51ZM1834.6 909.91L1834.39 910.887L1834.6 909.91ZM1705 907.81L1704 907.81L1704 908.81L1705 908.81L1705 907.81ZM1705 849.31L1705 848.31L1704 848.31L1704 849.31L1705 849.31ZM1856.2 855.01L1856.48 854.052L1856.48 854.05L1856.2 855.01ZM1889.5 872.71L1888.85 873.472L1889.5 872.71ZM1911.7 903.01L1910.79 903.415L1910.79 903.421L1911.7 903.01ZM1911.4 989.41L1912.3 989.845L1912.3 989.836L1912.31 989.827L1911.4 989.41ZM1888.3 1019.11L1887.67 1018.33L1888.3 1019.11ZM1855 1036.21L1855.27 1037.17L1855.27 1037.17L1855 1036.21ZM1705 1041.61L1704 1041.61L1704 1042.61L1705 1042.61L1705 1041.61ZM1705 983.11L1705 982.11L1704 982.11L1704 983.11L1705 983.11ZM1834.9 981.01L1835.11 981.988L1835.11 981.987L1834.9 981.01ZM1852 974.41L1852.51 975.268L1852.52 975.263L1852.53 975.258L1852 974.41ZM1863.7 963.01L1864.54 963.556L1864.55 963.536L1864.56 963.514L1863.7 963.01ZM1868.9 945.61C1868.9 938.661 1867.37 932.669 1864.25 927.68L1862.55 928.74C1865.43 933.352 1866.9 938.96 1866.9 945.61L1868.9 945.61ZM1864.25 927.68C1861.17 922.751 1857.16 918.743 1852.23 915.662L1851.17 917.358C1855.84 920.278 1859.63 924.069 1862.55 928.74L1864.25 927.68ZM1852.21 915.653C1847.11 912.59 1841.31 910.354 1834.81 908.933L1834.39 910.887C1840.69 912.267 1846.29 914.43 1851.19 917.368L1852.21 915.653ZM1834.81 908.933C1828.34 907.517 1821.57 906.81 1814.5 906.81L1814.5 908.81C1821.43 908.81 1828.06 909.503 1834.39 910.887L1834.81 908.933ZM1814.5 906.81L1705 906.81L1705 908.81L1814.5 908.81L1814.5 906.81ZM1706 907.81L1706 849.31L1704 849.31L1704 907.81L1706 907.81ZM1705 850.31L1814.5 850.31L1814.5 848.31L1705 848.31L1705 850.31ZM1814.5 850.31C1829.21 850.31 1843.02 852.199 1855.92 855.97L1856.48 854.05C1843.38 850.221 1829.39 848.31 1814.5 848.31L1814.5 850.31ZM1855.92 855.969C1868.59 859.732 1879.57 865.569 1888.85 873.472L1890.15 871.949C1880.63 863.851 1869.41 857.888 1856.48 854.052L1855.92 855.969ZM1888.85 873.472C1898.13 881.367 1905.44 891.341 1910.79 903.415L1912.61 902.605C1907.16 890.279 1899.67 880.054 1890.15 871.949L1888.85 873.472ZM1910.79 903.421C1916.12 915.264 1918.8 929.318 1918.8 945.61L1920.8 945.61C1920.8 929.103 1918.08 914.757 1912.61 902.6L1910.79 903.421ZM1918.8 945.61C1918.8 962.503 1916.02 976.954 1910.49 988.993L1912.31 989.827C1917.98 977.467 1920.8 962.717 1920.8 945.61L1918.8 945.61ZM1910.5 988.975C1904.76 1000.85 1897.15 1010.63 1887.67 1018.33L1888.93 1019.89C1898.65 1011.99 1906.44 1001.97 1912.3 989.845L1910.5 988.975ZM1887.67 1018.33C1878.18 1026.04 1867.2 1031.68 1854.73 1035.25L1855.27 1037.17C1868 1033.54 1879.22 1027.78 1888.93 1019.89L1887.67 1018.33ZM1854.73 1035.25C1842.02 1038.82 1828.61 1040.61 1814.5 1040.61L1814.5 1042.61C1828.79 1042.61 1842.38 1040.8 1855.27 1037.17L1854.73 1035.25ZM1814.5 1040.61L1705 1040.61L1705 1042.61L1814.5 1042.61L1814.5 1040.61ZM1706 1041.61L1706 983.11L1704 983.11L1704 1041.61L1706 1041.61ZM1705 984.11L1814.5 984.11L1814.5 982.11L1705 982.11L1705 984.11ZM1814.5 984.11C1821.57 984.11 1828.44 983.403 1835.11 981.988L1834.69 980.032C1828.16 981.417 1821.43 982.11 1814.5 982.11L1814.5 984.11ZM1835.11 981.987C1841.61 980.567 1847.41 978.33 1852.51 975.268L1851.49 973.553C1846.59 976.49 1840.99 978.654 1834.69 980.033L1835.11 981.987ZM1852.53 975.258C1857.45 972.184 1861.46 968.282 1864.54 963.556L1862.86 962.464C1859.94 966.938 1856.15 970.637 1851.47 973.562L1852.53 975.258ZM1864.56 963.514C1867.47 958.53 1868.9 952.548 1868.9 945.61L1866.9 945.61C1866.9 952.273 1865.53 957.89 1862.84 962.506L1864.56 963.514Z" fill="white"/>
<path opacity="0.1" d="M-10 851.3L-10 850.3L-11 850.3L-11 851.3L-10 851.3ZM203 851.3L204 851.3L204 850.3L203 850.3L203 851.3ZM203 997.4L203 998.4L204 998.4L204 997.4L203 997.4ZM152 997.4L151 997.4L151 998.4L152 998.4L152 997.4ZM152 909.8L153 909.8L153 908.8L152 908.8L152 909.8ZM116.6 909.8L116.6 908.8L115.6 908.8L115.6 909.8L116.6 909.8ZM116.6 981.2L116.6 982.2L117.6 982.2L117.6 981.2L116.6 981.2ZM69.2 981.2L68.2 981.2L68.2 982.2L69.2 982.2L69.2 981.2ZM69.2 909.8L70.2 909.8L70.2 908.8L69.2 908.8L69.2 909.8ZM-10 909.8L-11 909.8L-11 910.8L-10 910.8L-10 909.8ZM-10 852.3L203 852.3L203 850.3L-10 850.3L-10 852.3ZM202 851.3L202 997.4L204 997.4L204 851.3L202 851.3ZM203 996.4L152 996.4L152 998.4L203 998.4L203 996.4ZM153 997.4L153 909.8L151 909.8L151 997.4L153 997.4ZM152 908.8L116.6 908.8L116.6 910.8L152 910.8L152 908.8ZM115.6 909.8L115.6 981.2L117.6 981.2L117.6 909.8L115.6 909.8ZM116.6 980.2L69.2 980.2L69.2 982.2L116.6 982.2L116.6 980.2ZM70.2 981.2L70.2 909.8L68.2 909.8L68.2 981.2L70.2 981.2ZM69.2 908.8L-10 908.8L-10 910.8L69.2 910.8L69.2 908.8ZM-9 909.8L-9 851.3L-11 851.3L-11 909.8L-9 909.8ZM41 1172.14L41 1173.14L42 1173.14L42 1172.14L41 1172.14ZM-10 1172.14L-11 1172.14L-11 1173.14L-10 1173.14L-10 1172.14ZM-10 1020.34L-10 1019.34L-11 1019.34L-11 1020.34L-10 1020.34ZM203 1020.34L204 1020.34L204 1019.34L203 1019.34L203 1020.34ZM203 1169.44L203 1170.44L204 1170.44L204 1169.44L203 1169.44ZM152 1169.44L151 1169.44L151 1170.44L152 1170.44L152 1169.44ZM152 1078.84L153 1078.84L153 1077.84L152 1077.84L152 1078.84ZM122 1078.84L122 1077.84L121 1077.84L121 1078.84L122 1078.84ZM122 1156.24L122 1157.24L123 1157.24L123 1156.24L122 1156.24ZM74.6 1156.24L73.6 1156.24L73.6 1157.24L74.6 1157.24L74.6 1156.24ZM74.6 1078.84L75.6 1078.84L75.6 1077.84L74.6 1077.84L74.6 1078.84ZM41 1078.84L41 1077.84L40 1077.84L40 1078.84L41 1078.84ZM41 1171.14L-10 1171.14L-10 1173.14L41 1173.14L41 1171.14ZM-9.00001 1172.14L-9.00001 1020.34L-11 1020.34L-11 1172.14L-9.00001 1172.14ZM-10 1021.34L203 1021.34L203 1019.34L-10 1019.34L-10 1021.34ZM202 1020.34L202 1169.44L204 1169.44L204 1020.34L202 1020.34ZM203 1168.44L152 1168.44L152 1170.44L203 1170.44L203 1168.44ZM153 1169.44L153 1078.84L151 1078.84L151 1169.44L153 1169.44ZM152 1077.84L122 1077.84L122 1079.84L152 1079.84L152 1077.84ZM121 1078.84L121 1156.24L123 1156.24L123 1078.84L121 1078.84ZM122 1155.24L74.6 1155.24L74.6 1157.24L122 1157.24L122 1155.24ZM75.6 1156.24L75.6 1078.84L73.6 1078.84L73.6 1156.24L75.6 1156.24ZM74.6 1077.84L41 1077.84L41 1079.84L74.6 1079.84L74.6 1077.84ZM40 1078.84L40 1172.14L42 1172.14L42 1078.84L40 1078.84ZM-10 1199.35L-10 1198.35L-11 1198.35L-11 1199.35L-10 1199.35ZM203 1199.35L204 1199.35L204 1198.35L203 1198.35L203 1199.35ZM203 1345.45L203 1346.45L204 1346.45L204 1345.45L203 1345.45ZM152 1345.45L151 1345.45L151 1346.45L152 1346.45L152 1345.45ZM152 1257.85L153 1257.85L153 1256.85L152 1256.85L152 1257.85ZM116.6 1257.85L116.6 1256.85L115.6 1256.85L115.6 1257.85L116.6 1257.85ZM116.6 1329.25L116.6 1330.25L117.6 1330.25L117.6 1329.25L116.6 1329.25ZM69.2 1329.25L68.2 1329.25L68.2 1330.25L69.2 1330.25L69.2 1329.25ZM69.2 1257.85L70.2 1257.85L70.2 1256.85L69.2 1256.85L69.2 1257.85ZM-10 1257.85L-11 1257.85L-11 1258.85L-10 1258.85L-10 1257.85ZM-10 1200.35L203 1200.35L203 1198.35L-10 1198.35L-10 1200.35ZM202 1199.35L202 1345.45L204 1345.45L204 1199.35L202 1199.35ZM203 1344.45L152 1344.45L152 1346.45L203 1346.45L203 1344.45ZM153 1345.45L153 1257.85L151 1257.85L151 1345.45L153 1345.45ZM152 1256.85L116.6 1256.85L116.6 1258.85L152 1258.85L152 1256.85ZM115.6 1257.85L115.6 1329.25L117.6 1329.25L117.6 1257.85L115.6 1257.85ZM116.6 1328.25L69.2 1328.25L69.2 1330.25L116.6 1330.25L116.6 1328.25ZM70.2 1329.25L70.2 1257.85L68.2 1257.85L68.2 1329.25L70.2 1329.25ZM69.2 1256.85L-10 1256.85L-10 1258.85L69.2 1258.85L69.2 1256.85ZM-9.00002 1257.85L-9.00002 1199.35L-11 1199.35L-11 1257.85L-9.00002 1257.85ZM56.3 1490.49L55.77 1491.34L55.7777 1491.34L55.7855 1491.35L56.3 1490.49ZM73.4 1497.09L73.6137 1496.11L73.4 1497.09ZM203 1499.19L204 1499.19L204 1498.19L203 1498.19L203 1499.19ZM203 1557.69L203 1558.69L204 1558.69L204 1557.69L203 1557.69ZM51.8 1551.99L51.5154 1552.95L51.5194 1552.95L51.8 1551.99ZM18.5 1534.29L19.1481 1533.53L18.5 1534.29ZM-3.70004 1503.99L-2.78558 1503.59L-2.78812 1503.58L-3.70004 1503.99ZM-3.40002 1417.59L-4.30038 1417.15L-4.30471 1417.16L-4.30886 1417.17L-3.40002 1417.59ZM19.7 1387.89L20.3306 1388.67L19.7 1387.89ZM53 1370.79L52.7292 1369.83L52.7253 1369.83L53 1370.79ZM203 1365.39L204 1365.39L204 1364.39L203 1364.39L203 1365.39ZM203 1423.89L203 1424.89L204 1424.89L204 1423.89L203 1423.89ZM73.1 1425.99L72.8925 1425.01L72.8863 1425.01L73.1 1425.99ZM56 1432.59L55.4855 1431.73L55.4777 1431.74L55.47 1431.74L56 1432.59ZM44.3 1443.99L43.4624 1443.44L43.4487 1443.46L43.4362 1443.49L44.3 1443.99ZM39.1 1461.39C39.1 1468.34 40.6342 1474.33 43.752 1479.32L45.448 1478.26C42.5657 1473.65 41.1 1468.04 41.1 1461.39L39.1 1461.39ZM43.752 1479.32C46.8325 1484.25 50.8412 1488.26 55.77 1491.34L56.83 1489.64C52.1587 1486.72 48.3675 1482.93 45.448 1478.26L43.752 1479.32ZM55.7855 1491.35C60.8893 1494.41 66.6931 1496.65 73.1863 1498.07L73.6137 1496.11C67.3068 1494.73 61.7106 1492.57 56.8145 1489.63L55.7855 1491.35ZM73.1863 1498.07C79.6611 1499.48 86.433 1500.19 93.5 1500.19L93.5 1498.19C86.567 1498.19 79.9389 1497.5 73.6137 1496.11L73.1863 1498.07ZM93.5 1500.19L203 1500.19L203 1498.19L93.5 1498.19L93.5 1500.19ZM202 1499.19L202 1557.69L204 1557.69L204 1499.19L202 1499.19ZM203 1556.69L93.5 1556.69L93.5 1558.69L203 1558.69L203 1556.69ZM93.5 1556.69C78.7862 1556.69 64.9814 1554.8 52.0805 1551.03L51.5194 1552.95C64.6186 1556.78 78.6138 1558.69 93.5 1558.69L93.5 1556.69ZM52.0846 1551.03C39.4071 1547.27 28.4335 1541.43 19.1481 1533.53L17.8519 1535.05C27.3664 1543.15 38.5928 1549.11 51.5154 1552.95L52.0846 1551.03ZM19.1481 1533.53C9.87161 1525.63 2.55856 1515.66 -2.78561 1503.59L-4.61447 1504.39C0.84137 1516.72 8.32834 1526.95 17.8519 1535.05L19.1481 1533.53ZM-2.78812 1503.58C-8.11761 1491.74 -10.8 1477.68 -10.8 1461.39L-12.8 1461.39C-12.8 1477.9 -10.0825 1492.24 -4.61194 1504.4L-2.78812 1503.58ZM-10.8 1461.39C-10.8 1444.5 -8.01736 1430.05 -2.49121 1418.01L-4.30886 1417.17C-9.98269 1429.53 -12.8 1444.28 -12.8 1461.39L-10.8 1461.39ZM-2.49969 1418.03C3.24152 1406.15 10.8531 1396.37 20.3306 1388.67L19.0694 1387.11C9.3469 1395.01 1.55842 1405.03 -4.30038 1417.15L-2.49969 1418.03ZM20.3306 1388.67C29.8195 1380.96 40.7968 1375.32 53.2747 1371.75L52.7253 1369.83C40.0032 1373.46 28.7804 1379.22 19.0694 1387.11L20.3306 1388.67ZM53.2707 1371.75C65.9768 1368.18 79.3853 1366.39 93.5 1366.39L93.5 1364.39C79.2147 1364.39 65.6231 1366.2 52.7292 1369.83L53.2707 1371.75ZM93.5 1366.39L203 1366.39L203 1364.39L93.5 1364.39L93.5 1366.39ZM202 1365.39L202 1423.89L204 1423.89L204 1365.39L202 1365.39ZM203 1422.89L93.5 1422.89L93.5 1424.89L203 1424.89L203 1422.89ZM93.5 1422.89C86.4329 1422.89 79.5632 1423.6 72.8925 1425.01L73.3075 1426.97C79.8368 1425.58 86.5671 1424.89 93.5 1424.89L93.5 1422.89ZM72.8863 1425.01C66.3931 1426.43 60.5893 1428.67 55.4855 1431.73L56.5145 1433.45C61.4106 1430.51 67.0068 1428.35 73.3137 1426.97L72.8863 1425.01ZM55.47 1431.74C50.5506 1434.82 46.5442 1438.72 43.4624 1443.44L45.1376 1444.54C48.0557 1440.06 51.8493 1436.36 56.53 1433.44L55.47 1431.74ZM43.4362 1443.49C40.529 1448.47 39.1 1454.45 39.1 1461.39L41.1 1461.39C41.1 1454.73 42.4709 1449.11 45.1638 1444.49L43.4362 1443.49Z" fill="white"/>
<path opacity="0.1" d="M1918 722.7L1918 723.7L1919 723.7L1919 722.7L1918 722.7ZM1705 722.7L1704 722.7L1704 723.7L1705 723.7L1705 722.7ZM1705 576.6L1705 575.6L1704 575.6L1704 576.6L1705 576.6ZM1756 576.6L1757 576.6L1757 575.6L1756 575.6L1756 576.6ZM1756 664.2L1755 664.2L1755 665.2L1756 665.2L1756 664.2ZM1791.4 664.2L1791.4 665.2L1792.4 665.2L1792.4 664.2L1791.4 664.2ZM1791.4 592.8L1791.4 591.8L1790.4 591.8L1790.4 592.8L1791.4 592.8ZM1838.8 592.8L1839.8 592.8L1839.8 591.8L1838.8 591.8L1838.8 592.8ZM1838.8 664.2L1837.8 664.2L1837.8 665.2L1838.8 665.2L1838.8 664.2ZM1918 664.2L1919 664.2L1919 663.2L1918 663.2L1918 664.2ZM1918 721.7L1705 721.7L1705 723.7L1918 723.7L1918 721.7ZM1706 722.7L1706 576.6L1704 576.6L1704 722.7L1706 722.7ZM1705 577.6L1756 577.6L1756 575.6L1705 575.6L1705 577.6ZM1755 576.6L1755 664.2L1757 664.2L1757 576.6L1755 576.6ZM1756 665.2L1791.4 665.2L1791.4 663.2L1756 663.2L1756 665.2ZM1792.4 664.2L1792.4 592.8L1790.4 592.8L1790.4 664.2L1792.4 664.2ZM1791.4 593.8L1838.8 593.8L1838.8 591.8L1791.4 591.8L1791.4 593.8ZM1837.8 592.8L1837.8 664.2L1839.8 664.2L1839.8 592.8L1837.8 592.8ZM1838.8 665.2L1918 665.2L1918 663.2L1838.8 663.2L1838.8 665.2ZM1917 664.2L1917 722.7L1919 722.7L1919 664.2L1917 664.2ZM1867 401.857L1867 400.857L1866 400.857L1866 401.857L1867 401.857ZM1918 401.857L1919 401.857L1919 400.857L1918 400.857L1918 401.857ZM1918 553.657L1918 554.657L1919 554.657L1919 553.657L1918 553.657ZM1705 553.657L1704 553.657L1704 554.657L1705 554.657L1705 553.657ZM1705 404.557L1705 403.557L1704 403.557L1704 404.557L1705 404.557ZM1756 404.557L1757 404.557L1757 403.557L1756 403.557L1756 404.557ZM1756 495.157L1755 495.157L1755 496.157L1756 496.157L1756 495.157ZM1786 495.157L1786 496.157L1787 496.157L1787 495.157L1786 495.157ZM1786 417.757L1786 416.757L1785 416.757L1785 417.757L1786 417.757ZM1833.4 417.757L1834.4 417.757L1834.4 416.757L1833.4 416.757L1833.4 417.757ZM1833.4 495.157L1832.4 495.157L1832.4 496.157L1833.4 496.157L1833.4 495.157ZM1867 495.157L1867 496.157L1868 496.157L1868 495.157L1867 495.157ZM1867 402.857L1918 402.857L1918 400.857L1867 400.857L1867 402.857ZM1917 401.857L1917 553.657L1919 553.657L1919 401.857L1917 401.857ZM1918 552.657L1705 552.657L1705 554.657L1918 554.657L1918 552.657ZM1706 553.657L1706 404.557L1704 404.557L1704 553.657L1706 553.657ZM1705 405.557L1756 405.557L1756 403.557L1705 403.557L1705 405.557ZM1755 404.557L1755 495.157L1757 495.157L1757 404.557L1755 404.557ZM1756 496.157L1786 496.157L1786 494.157L1756 494.157L1756 496.157ZM1787 495.157L1787 417.757L1785 417.757L1785 495.157L1787 495.157ZM1786 418.757L1833.4 418.757L1833.4 416.757L1786 416.757L1786 418.757ZM1832.4 417.757L1832.4 495.157L1834.4 495.157L1834.4 417.757L1832.4 417.757ZM1833.4 496.157L1867 496.157L1867 494.157L1833.4 494.157L1833.4 496.157ZM1868 495.157L1868 401.857L1866 401.857L1866 495.157L1868 495.157ZM1918 374.653L1918 375.653L1919 375.653L1919 374.653L1918 374.653ZM1705 374.653L1704 374.653L1704 375.653L1705 375.653L1705 374.653ZM1705 228.553L1705 227.553L1704 227.553L1704 228.553L1705 228.553ZM1756 228.553L1757 228.553L1757 227.553L1756 227.553L1756 228.553ZM1756 316.153L1755 316.153L1755 317.153L1756 317.153L1756 316.153ZM1791.4 316.153L1791.4 317.153L1792.4 317.153L1792.4 316.153L1791.4 316.153ZM1791.4 244.753L1791.4 243.753L1790.4 243.753L1790.4 244.753L1791.4 244.753ZM1838.8 244.753L1839.8 244.753L1839.8 243.753L1838.8 243.753L1838.8 244.753ZM1838.8 316.153L1837.8 316.153L1837.8 317.153L1838.8 317.153L1838.8 316.153ZM1918 316.153L1919 316.153L1919 315.153L1918 315.153L1918 316.153ZM1918 373.653L1705 373.653L1705 375.653L1918 375.653L1918 373.653ZM1706 374.653L1706 228.553L1704 228.553L1704 374.653L1706 374.653ZM1705 229.553L1756 229.553L1756 227.553L1705 227.553L1705 229.553ZM1755 228.553L1755 316.153L1757 316.153L1757 228.553L1755 228.553ZM1756 317.153L1791.4 317.153L1791.4 315.153L1756 315.153L1756 317.153ZM1792.4 316.153L1792.4 244.753L1790.4 244.753L1790.4 316.153L1792.4 316.153ZM1791.4 245.753L1838.8 245.753L1838.8 243.753L1791.4 243.753L1791.4 245.753ZM1837.8 244.753L1837.8 316.153L1839.8 316.153L1839.8 244.753L1837.8 244.753ZM1838.8 317.153L1918 317.153L1918 315.153L1838.8 315.153L1838.8 317.153ZM1917 316.153L1917 374.653L1919 374.653L1919 316.153L1917 316.153ZM1851.7 83.5102L1852.23 82.6622L1852.22 82.6574L1852.21 82.6527L1851.7 83.5102ZM1834.6 76.9102L1834.39 77.887L1834.6 76.9102ZM1705 74.8102L1704 74.8102L1704 75.8102L1705 75.8102L1705 74.8102ZM1705 16.3101L1705 15.3101L1704 15.3101L1704 16.3101L1705 16.3101ZM1856.2 22.0102L1856.48 21.0515L1856.48 21.0503L1856.2 22.0102ZM1889.5 39.7102L1888.85 40.4717L1889.5 39.7102ZM1911.7 70.0102L1910.79 70.415L1910.79 70.4206L1911.7 70.0102ZM1911.4 156.41L1912.3 156.845L1912.3 156.836L1912.31 156.827L1911.4 156.41ZM1888.3 186.11L1887.67 185.334L1888.3 186.11ZM1855 203.21L1855.27 204.173L1855.27 204.172L1855 203.21ZM1705 208.61L1704 208.61L1704 209.61L1705 209.61L1705 208.61ZM1705 150.11L1705 149.11L1704 149.11L1704 150.11L1705 150.11ZM1834.9 148.01L1835.11 148.988L1835.11 148.987L1834.9 148.01ZM1852 141.41L1852.51 142.268L1852.52 142.263L1852.53 142.258L1852 141.41ZM1863.7 130.01L1864.54 130.556L1864.55 130.536L1864.56 130.514L1863.7 130.01ZM1868.9 112.61C1868.9 105.661 1867.37 99.6685 1864.25 94.6802L1862.55 95.7402C1865.43 100.352 1866.9 105.96 1866.9 112.61L1868.9 112.61ZM1864.25 94.6802C1861.17 89.7514 1857.16 85.7426 1852.23 82.6622L1851.17 84.3582C1855.84 87.2777 1859.63 91.0689 1862.55 95.7402L1864.25 94.6802ZM1852.21 82.6527C1847.11 79.5904 1841.31 77.3537 1834.81 75.9333L1834.39 77.887C1840.69 79.2667 1846.29 81.43 1851.19 84.3676L1852.21 82.6527ZM1834.81 75.9333C1828.34 74.5169 1821.57 73.8102 1814.5 73.8102L1814.5 75.8102C1821.43 75.8102 1828.06 76.5034 1834.39 77.887L1834.81 75.9333ZM1814.5 73.8102L1705 73.8102L1705 75.8102L1814.5 75.8102L1814.5 73.8102ZM1706 74.8102L1706 16.3101L1704 16.3101L1704 74.8102L1706 74.8102ZM1705 17.3101L1814.5 17.3101L1814.5 15.3101L1705 15.3101L1705 17.3101ZM1814.5 17.3101C1829.21 17.3101 1843.02 19.199 1855.92 22.97L1856.48 21.0503C1843.38 17.2213 1829.39 15.3101 1814.5 15.3101L1814.5 17.3101ZM1855.92 22.9688C1868.59 26.7325 1879.57 32.5692 1888.85 40.4717L1890.15 38.9486C1880.63 30.8512 1869.41 24.8879 1856.48 21.0515L1855.92 22.9688ZM1888.85 40.4717C1898.13 48.3666 1905.44 58.341 1910.79 70.415L1912.61 69.6054C1907.16 57.2793 1899.67 47.0537 1890.15 38.9486L1888.85 40.4717ZM1910.79 70.4206C1916.12 82.2639 1918.8 96.3178 1918.8 112.61L1920.8 112.61C1920.8 96.1026 1918.08 81.7565 1912.61 69.5998L1910.79 70.4206ZM1918.8 112.61C1918.8 129.503 1916.02 143.954 1910.49 155.993L1912.31 156.827C1917.98 144.467 1920.8 129.717 1920.8 112.61L1918.8 112.61ZM1910.5 155.975C1904.76 167.853 1897.15 177.634 1887.67 185.334L1888.93 186.886C1898.65 178.987 1906.44 168.967 1912.3 156.845L1910.5 155.975ZM1887.67 185.334C1878.18 193.044 1867.2 198.684 1854.73 202.249L1855.27 204.172C1868 200.537 1879.22 194.777 1888.93 186.886L1887.67 185.334ZM1854.73 202.248C1842.02 205.821 1828.61 207.61 1814.5 207.61L1814.5 209.61C1828.79 209.61 1842.38 207.799 1855.27 204.173L1854.73 202.248ZM1814.5 207.61L1705 207.61L1705 209.61L1814.5 209.61L1814.5 207.61ZM1706 208.61L1706 150.11L1704 150.11L1704 208.61L1706 208.61ZM1705 151.11L1814.5 151.11L1814.5 149.11L1705 149.11L1705 151.11ZM1814.5 151.11C1821.57 151.11 1828.44 150.403 1835.11 148.988L1834.69 147.032C1828.16 148.417 1821.43 149.11 1814.5 149.11L1814.5 151.11ZM1835.11 148.987C1841.61 147.567 1847.41 145.33 1852.51 142.268L1851.49 140.553C1846.59 143.49 1840.99 145.654 1834.69 147.033L1835.11 148.987ZM1852.53 142.258C1857.45 139.184 1861.46 135.282 1864.54 130.556L1862.86 129.464C1859.94 133.938 1856.15 137.637 1851.47 140.562L1852.53 142.258ZM1864.56 130.514C1867.47 125.53 1868.9 119.548 1868.9 112.61L1866.9 112.61C1866.9 119.273 1865.53 124.89 1862.84 129.506L1864.56 130.514Z" fill="white"/>
</svg>
