<svg width="1072" height="400" viewBox="0 1 1072 400" fill="none" xmlns="http://www.w3.org/2000/svg">
<rect width="1072" height="410" fill="#232323"/>
<rect opacity="0.5" y="172" width="1072" height="56" fill="#00FFC2"/>
<path opacity="0.7" d="M258.843 188.964V188.406H258.285V188.964H258.843ZM258.843 227.657H258.285V228.215H258.843V227.657ZM336.48 227.657H337.038V227.098H336.48V227.657ZM336.48 266.098V266.656H337.038V266.098H336.48ZM258.843 266.098V265.54H258.285V266.098H258.843ZM258.843 326.398V326.956H259.402V326.398H258.843ZM209.096 326.398H208.537V326.956H209.096V326.398ZM209.096 150.523V149.965H208.537V150.523H209.096ZM347.032 150.523H347.59V149.965H347.032V150.523ZM347.032 188.964V189.523H347.59V188.964H347.032ZM258.285 188.964V227.657H259.402V188.964H258.285ZM258.843 228.215H336.48V227.098H258.843V228.215ZM335.921 227.657V266.098H337.038V227.657H335.921ZM336.48 265.54H258.843V266.656H336.48V265.54ZM258.285 266.098V326.398H259.402V266.098H258.285ZM258.843 325.84H209.096V326.956H258.843V325.84ZM209.654 326.398V150.523H208.537V326.398H209.654ZM209.096 151.081H347.032V149.965H209.096V151.081ZM346.474 150.523V188.964H347.59V150.523H346.474ZM347.032 188.406H258.843V189.523H347.032V188.406ZM511.501 287.957H512.059V287.398H511.501V287.957ZM511.501 326.398V326.956H512.059V326.398H511.501ZM370.298 326.398H369.74V326.956H370.298V326.398ZM370.298 150.523V149.965H369.74V150.523H370.298ZM508.234 150.523H508.793V149.965H508.234V150.523ZM508.234 188.964V189.523H508.793V188.964H508.234ZM419.543 188.964V188.406H418.985V188.964H419.543ZM419.543 218.612H418.985V219.17H419.543V218.612ZM497.682 218.612H498.24V218.053H497.682V218.612ZM497.682 255.797V256.355H498.24V255.797H497.682ZM419.543 255.797V255.238H418.985V255.797H419.543ZM419.543 287.957H418.985V288.515H419.543V287.957ZM510.942 287.957V326.398H512.059V287.957H510.942ZM511.501 325.84H370.298V326.956H511.501V325.84ZM370.857 326.398V150.523H369.74V326.398H370.857ZM370.298 151.081H508.234V149.965H370.298V151.081ZM507.676 150.523V188.964H508.793V150.523H507.676ZM508.234 188.406H419.543V189.523H508.234V188.406ZM418.985 188.964V218.612H420.102V188.964H418.985ZM419.543 219.17H497.682V218.053H419.543V219.17ZM497.124 218.612V255.797H498.24V218.612H497.124ZM497.682 255.238H419.543V256.355H497.682V255.238ZM418.985 255.797V287.957H420.102V255.797H418.985ZM419.543 288.515H511.501V287.398H419.543V288.515ZM588.854 188.964V188.406H588.296V188.964H588.854ZM588.854 227.657H588.296V228.215H588.854V227.657ZM666.491 227.657H667.049V227.098H666.491V227.657ZM666.491 266.098V266.656H667.049V266.098H666.491ZM588.854 266.098V265.54H588.296V266.098H588.854ZM588.854 326.398V326.956H589.413V326.398H588.854ZM539.107 326.398H538.548V326.956H539.107V326.398ZM539.107 150.523V149.965H538.548V150.523H539.107ZM677.043 150.523H677.601V149.965H677.043V150.523ZM677.043 188.964V189.523H677.601V188.964H677.043ZM588.296 188.964V227.657H589.413V188.964H588.296ZM588.854 228.215H666.491V227.098H588.854V228.215ZM665.932 227.657V266.098H667.049V227.657H665.932ZM666.491 265.54H588.854V266.656H666.491V265.54ZM588.296 266.098V326.398H589.413V266.098H588.296ZM588.854 325.84H539.107V326.956H588.854V325.84ZM539.665 326.398V150.523H538.548V326.398H539.665ZM539.107 151.081H677.043V149.965H539.107V151.081ZM676.485 150.523V188.964H677.601V150.523H676.485ZM677.043 188.406H588.854V189.523H677.043V188.406ZM720.409 308.559L720.017 308.956L720.019 308.959L720.409 308.559ZM698.802 150.523V149.965H698.243V150.523H698.802ZM748.549 150.523H749.108V149.965H748.549V150.523ZM815.13 150.523V149.965H814.572V150.523H815.13ZM864.124 150.523H864.683V149.965H864.124V150.523ZM842.265 308.559L841.875 308.16L841.873 308.162L842.265 308.559ZM781.463 329.357C755.436 329.357 735.24 322.269 720.799 308.16L720.019 308.959C734.723 323.325 755.23 330.474 781.463 330.474V329.357ZM720.802 308.162C706.531 294.058 699.36 274.034 699.36 248.008H698.243C698.243 274.242 705.477 294.586 720.017 308.956L720.802 308.162ZM699.36 248.008V150.523H698.243V248.008H699.36ZM698.802 151.081H748.549V149.965H698.802V151.081ZM747.991 150.523V246.5H749.108V150.523H747.991ZM747.991 246.5C747.991 260.629 750.785 271.329 756.466 278.505C762.166 285.705 770.701 289.269 781.965 289.269V288.152C770.952 288.152 762.779 284.681 757.341 277.811C751.883 270.917 749.108 260.512 749.108 246.5H747.991ZM781.965 289.269C793.147 289.269 801.62 285.704 807.278 278.503C812.916 271.327 815.689 260.628 815.689 246.5H814.572C814.572 260.513 811.817 270.919 806.4 277.813C801.003 284.682 792.894 288.152 781.965 288.152V289.269ZM815.689 246.5V150.523H814.572V246.5H815.689ZM815.13 151.081H864.124V149.965H815.13V151.081ZM863.566 150.523V248.008H864.683V150.523H863.566ZM863.566 248.008C863.566 274.032 856.312 294.055 841.875 308.16L842.656 308.959C857.364 294.588 864.683 274.244 864.683 248.008H863.566ZM841.873 308.162C827.6 322.269 807.49 329.357 781.463 329.357V330.474C807.695 330.474 828.121 323.325 842.658 308.956L841.873 308.162Z" fill="white"/>
<g filter="url(#filter0_d)">
<path d="M296.006 210.152V242.613H176.768V94.0964H293.248V126.558H218.353V151.594H284.337V182.994H218.353V210.152H296.006ZM467.884 94.0964L404.234 242.613H362.862L299.424 94.0964H344.828L385.139 190.844L426.3 94.0964H467.884ZM595.816 210.152V242.613H476.578V94.0964H593.058V126.558H518.163V151.594H584.147V182.994H518.163V210.152H595.816ZM760.431 94.0964V242.613H725.847L660.288 163.475V242.613H619.128V94.0964H653.711L719.27 173.235V94.0964H760.431ZM821.675 127.407H776.06V94.0964H909.088V127.407H863.684V242.613H821.675V127.407Z" fill="#F5F5F5"/>
</g>
<defs>
<filter id="filter0_d" x="148.852" y="71.7631" width="788.153" height="204.35" filterUnits="userSpaceOnUse" color-interpolation-filters="sRGB">
<feFlood flood-opacity="0" result="BackgroundImageFix"/>
<feColorMatrix in="SourceAlpha" type="matrix" values="0 0 0 0 0 0 0 0 0 0 0 0 0 0 0 0 0 0 127 0"/>
<feOffset dy="5.58333"/>
<feGaussianBlur stdDeviation="13.9583"/>
<feColorMatrix type="matrix" values="0 0 0 0 1 0 0 0 0 1 0 0 0 0 1 0 0 0 0.25 0"/>
<feBlend mode="normal" in2="BackgroundImageFix" result="effect1_dropShadow"/>
<feBlend mode="normal" in="SourceGraphic" in2="effect1_dropShadow" result="shape"/>
</filter>
</defs>
</svg>
